<svg width="148" height="47" viewBox="0 0 148 47" fill="none" xmlns="http://www.w3.org/2000/svg">
<path d="M97.5176 15.1076C99.3063 15.1183 101.019 15.8401 102.283 17.1164C103.548 18.3927 104.263 20.1207 104.274 21.9257V28.7589C104.263 30.564 103.548 32.2921 102.284 33.5687C101.019 34.8452 99.3064 35.5673 97.5176 35.5783V33.8733C98.8589 33.8639 100.143 33.3221 101.091 32.3649C102.04 31.4078 102.576 30.1124 102.586 28.7589V26.4354C101.839 27.2903 100.892 27.9427 99.8305 28.3329C98.7694 28.7231 97.6283 28.8388 96.5115 28.6692C95.3947 28.4997 94.3378 28.0504 93.4374 27.3624C92.537 26.6745 91.8218 25.7697 91.3572 24.7309C90.8926 23.6921 90.6935 22.5524 90.7779 21.4159C90.8623 20.2794 91.2277 19.1824 91.8405 18.2251C92.4534 17.2678 93.2942 16.4808 94.2862 15.9359C95.2782 15.3911 96.3896 15.1059 97.519 15.1062M97.519 16.8113C96.3401 16.8057 95.1958 17.2132 94.2814 17.9642C93.367 18.7152 92.7392 19.7632 92.5052 20.9292C92.2712 22.0953 92.4454 23.3071 92.9982 24.358C93.5509 25.4088 94.4479 26.2335 95.5361 26.6913C96.6243 27.1491 97.8362 27.2116 98.965 26.8682C100.094 26.5247 101.069 25.7966 101.725 24.8081C102.382 23.8196 102.677 22.632 102.562 21.448C102.447 20.2639 101.929 19.1568 101.095 18.3157C100.632 17.8323 100.076 17.4495 99.461 17.1908C98.846 16.9321 98.1852 16.8029 97.519 16.8113Z" fill="#2E9ECE"/>
<path fill-rule="evenodd" clip-rule="evenodd" d="M104.689 21.9238L104.689 21.9263L104.689 28.762C104.677 30.6772 103.919 32.5108 102.577 33.8652C101.235 35.2196 99.4179 35.9857 97.5201 35.9974L97.1029 36V33.4584L97.5147 33.4555C98.747 33.4469 99.9264 32.9491 100.798 32.0697C101.669 31.1907 102.162 30.0011 102.171 28.758V27.4332C101.522 27.9914 100.778 28.4303 99.9724 28.7267C98.8462 29.1408 97.635 29.2636 96.4497 29.0836C95.2644 28.9037 94.1426 28.4269 93.187 27.6967C92.2313 26.9665 91.4723 26.0062 90.9792 24.9037C90.4861 23.8011 90.2747 22.5915 90.3643 21.3853C90.4539 20.179 90.8417 19.0147 91.4922 17.9987C92.1426 16.9826 93.0351 16.1473 94.0879 15.5691C95.1407 14.9908 96.3204 14.6881 97.5191 14.6885L97.519 14.8591L97.52 14.6899C99.4177 14.7012 101.235 15.467 102.577 16.8212C103.918 18.1753 104.677 20.0088 104.689 21.9238ZM97.5189 15.1069H97.5175C96.3886 15.1067 95.2777 15.392 94.2861 15.9366C93.2941 16.4814 92.4533 17.2684 91.8404 18.2257C91.2276 19.183 90.8622 20.28 90.7778 21.4165C90.6934 22.553 90.8926 23.6928 91.3571 24.7316C91.8217 25.7704 92.5369 26.6751 93.4373 27.3631C94.3377 28.0511 95.3946 28.5003 96.5114 28.6699C97.6282 28.8394 98.7693 28.7238 99.8304 28.3336C100.704 28.0124 101.5 27.5135 102.171 26.8704C102.315 26.7321 102.454 26.5873 102.586 26.4361V28.7595C102.576 30.1131 102.039 31.4085 101.091 32.3656C100.143 33.3227 98.8588 33.8646 97.5175 33.8739V35.579C97.6563 35.5781 97.7945 35.573 97.9322 35.5636C99.5692 35.4526 101.117 34.7469 102.283 33.5693C103.548 32.2928 104.263 30.5646 104.274 28.7595V21.9263C104.263 20.1214 103.548 18.3934 102.283 17.117C101.019 15.841 99.3071 15.1193 97.5189 15.1083L97.5175 15.1083L97.5189 15.1069ZM97.5205 17.2303L97.517 17.2303C96.4341 17.2252 95.3829 17.5995 94.543 18.2894C93.7031 18.9792 93.1264 19.9418 92.9115 21.0129C92.6965 22.084 92.8566 23.1972 93.3643 24.1624C93.8721 25.1277 94.696 25.8852 95.6956 26.3058C96.6951 26.7263 97.8083 26.7837 98.8452 26.4682C99.882 26.1527 100.778 25.4839 101.381 24.5759C101.983 23.668 102.255 22.5771 102.15 21.4894C102.044 20.4018 101.568 19.3849 100.802 18.6122L100.799 18.6097L100.797 18.6071C100.373 18.1647 99.8641 17.8144 99.3013 17.5776C98.7385 17.3409 98.1337 17.2227 97.5241 17.2303L97.5205 17.2303ZM97.5189 16.8119C98.1851 16.8036 98.8459 16.9327 99.4609 17.1914C100.076 17.4501 100.632 17.8329 101.095 18.3163C101.929 19.1575 102.447 20.2646 102.562 21.4486C102.677 22.6327 102.381 23.8203 101.725 24.8088C101.069 25.7973 100.094 26.5254 98.9649 26.8688C97.8361 27.2123 96.6242 27.1497 95.536 26.692C94.4478 26.2342 93.5508 25.4095 92.9981 24.3586C92.4453 23.3078 92.2711 22.0959 92.5051 20.9299C92.7391 19.7638 93.3669 18.7159 94.2813 17.9649C95.1957 17.2139 96.34 16.8064 97.5189 16.8119Z" fill="#2E9ECE"/>
<path d="M71.082 14.6885C70.6281 14.6885 70.2364 14.8526 69.9066 15.1809C69.5973 15.4887 69.4426 15.8683 69.4426 16.3197C69.4426 16.7711 69.5973 17.1609 69.9066 17.4892C70.2364 17.797 70.6281 17.9509 71.082 17.9509C71.5355 17.9509 71.9171 17.797 72.2264 17.4892C72.5562 17.1609 72.7213 16.7711 72.7213 16.3197C72.7213 15.8683 72.5562 15.4887 72.2264 15.1809C71.9171 14.8526 71.5355 14.6885 71.082 14.6885Z" fill="#2E9ECE"/>
<path d="M71.9065 19.4905H70.2573V28.7422H71.9065V19.4905Z" fill="#2E9ECE"/>
<path fill-rule="evenodd" clip-rule="evenodd" d="M69.8525 19.1967H72.3115V29.0328H69.8525V19.1967ZM71.9066 19.4889V28.7406H70.2573V19.4889H71.9066Z" fill="#2E9ECE"/>
<path d="M58.7978 21.8531C58.8046 20.0621 59.5311 18.3466 60.8185 17.0815C62.1059 15.8165 63.8496 15.1048 65.6683 15.1021C66.246 15.1031 66.8215 15.1719 67.3826 15.3069V17.0819C66.8327 16.887 66.2527 16.7874 65.6683 16.7877C64.3028 16.7864 62.9926 17.3191 62.0258 18.2687C61.0589 19.2183 60.5145 20.507 60.5121 21.8518V28.6178H58.7978V21.8531Z" fill="#2E9ECE"/>
<path fill-rule="evenodd" clip-rule="evenodd" d="M58.377 21.8522C58.3842 19.9517 59.1552 18.1313 60.5213 16.7889C61.8875 15.4465 63.7377 14.6913 65.6676 14.6885L65.6689 14.6885C66.28 14.6895 66.8888 14.7622 67.4825 14.9051L67.8033 14.9824V17.672L67.2401 17.4724C66.736 17.2937 66.2042 17.2024 65.6684 17.2026H65.6678C64.4139 17.2014 63.2107 17.6906 62.3228 18.5627C61.435 19.4346 60.9351 20.618 60.9328 21.8528V29.0327H58.377V21.8522ZM60.5121 21.8524C60.5145 20.5077 61.0589 19.2189 62.0258 18.2693C62.9926 17.3197 64.3027 16.787 65.6682 16.7883C66.1055 16.7881 66.5403 16.8438 66.9619 16.9535C67.1037 16.9904 67.2441 17.0335 67.3826 17.0825V15.3076C66.8214 15.1725 66.2459 15.1038 65.6682 15.1028C63.8495 15.1055 62.1059 15.8171 60.8185 17.0822C59.531 18.3472 58.8045 20.0628 58.7977 21.8538V28.6184H60.5121V21.8524Z" fill="#2E9ECE"/>
<path d="M47.7321 21.8531C47.7392 20.0622 48.4658 18.3469 49.7532 17.0819C51.0405 15.817 52.784 15.1052 54.6026 15.1021C55.1802 15.1032 55.7557 15.1719 56.3169 15.3069V17.0819C55.767 16.887 55.187 16.7874 54.6026 16.7877C53.2371 16.7864 51.9269 17.3191 50.9601 18.2687C49.9932 19.2183 49.4488 20.507 49.4464 21.8518V28.6178H47.7321V21.8531Z" fill="#2E9ECE"/>
<path fill-rule="evenodd" clip-rule="evenodd" d="M47.3115 21.8522C47.3191 19.9518 48.0901 18.1316 49.4562 16.7893C50.8222 15.447 52.6722 14.6917 54.602 14.6885L54.6035 14.6885C55.2145 14.6896 55.8233 14.7623 56.4169 14.9051L56.7377 14.9823V17.672L56.1745 17.4724C55.6704 17.2937 55.1387 17.2024 54.6029 17.2026L54.6023 17.2026C53.3483 17.2014 52.1452 17.6906 51.2573 18.5627C50.3695 19.4346 49.8695 20.618 49.8672 21.8528V29.0327H47.3115V21.8522ZM49.4465 21.8524C49.4489 20.5077 49.9934 19.2189 50.9602 18.2693C51.9271 17.3197 53.2372 16.787 54.6027 16.7883C55.04 16.7881 55.4748 16.8438 55.8963 16.9535C56.0382 16.9904 56.1786 17.0335 56.317 17.0825V15.3076C55.7559 15.1726 55.1804 15.1038 54.6027 15.1028C52.7841 15.1058 51.0407 15.8176 49.7533 17.0826C48.466 18.3475 47.7393 20.0629 47.7322 21.8538V28.6184H49.4465V21.8524Z" fill="#2E9ECE"/>
<path d="M43.5603 28.615V26.3067C42.5133 27.4873 41.0845 28.2644 39.5226 28.503C37.9606 28.7416 36.3641 28.4265 35.011 27.6125C33.6578 26.7985 32.6335 25.5372 32.1162 24.0478C31.5989 22.5585 31.6214 20.9354 32.1797 19.4609C32.738 17.9863 33.7968 16.7536 35.172 15.9772C36.5472 15.2008 38.1517 14.9298 39.7065 15.2113C41.2613 15.4927 42.668 16.3089 43.6819 17.5179C44.6958 18.7269 45.2528 20.2521 45.2559 21.8283V28.6068L43.5603 28.615ZM38.4752 16.7664C37.2923 16.7611 36.1441 17.1655 35.2267 17.9105C34.3093 18.6555 33.6796 19.6949 33.4449 20.8515C33.2102 22.008 33.3852 23.21 33.9399 24.2522C34.4947 25.2944 35.3949 26.1122 36.4868 26.5662C37.5787 27.0202 38.7948 27.0821 39.9274 26.7414C41.06 26.4008 42.039 25.6786 42.6973 24.6982C43.3556 23.7178 43.6524 22.5399 43.537 21.3655C43.4217 20.1911 42.9013 19.0931 42.0648 18.2588C41.6 17.7792 41.0418 17.3994 40.4246 17.1427C39.8073 16.8861 39.1439 16.758 38.4752 16.7664Z" fill="#2E9ECE"/>
<path fill-rule="evenodd" clip-rule="evenodd" d="M43.1442 29.0327V27.294C42.1365 28.1482 40.9059 28.7123 39.5856 28.9139C37.9274 29.1672 36.2327 28.8327 34.7961 27.9686C33.3596 27.1045 32.2722 25.7654 31.7231 24.1843C31.1739 22.6033 31.1978 20.8802 31.7905 19.3148C32.3831 17.7495 33.5072 16.4409 34.9671 15.6166C36.427 14.7924 38.1303 14.5047 39.7809 14.8035C41.4314 15.1023 42.9248 15.9688 44.0011 17.2522C45.0775 18.5356 45.6688 20.1548 45.6721 21.8281V21.8289V29.0205L43.1442 29.0327ZM43.1442 26.7367C43.2887 26.6002 43.4276 26.457 43.5603 26.3073V28.6157L45.256 28.6074V21.8289C45.2528 20.2527 44.6959 18.7275 43.682 17.5185C42.668 16.3096 41.2614 15.4934 39.7066 15.2119C38.1518 14.9304 36.5472 15.2014 35.1721 15.9779C33.7969 16.7543 32.738 17.987 32.1797 19.4615C31.6214 20.936 31.599 22.5591 32.1163 24.0485C32.6336 25.5378 33.6579 26.7992 35.011 27.6131C36.3642 28.4271 37.9606 28.7422 39.5226 28.5037C40.8866 28.2953 42.1489 27.6763 43.1442 26.7367ZM38.477 17.1821L38.4735 17.1821C37.3868 17.1773 36.3322 17.5487 35.4895 18.233C34.6468 18.9173 34.0684 19.8721 33.8528 20.9345C33.6373 21.9968 33.798 23.1008 34.3075 24.0582C34.8171 25.0155 35.644 25.7667 36.647 26.1837C37.65 26.6007 38.7669 26.6576 39.8073 26.3447C40.8477 26.0318 41.7469 25.3684 42.3516 24.4679C42.9563 23.5673 43.2289 22.4853 43.123 21.4066C43.017 20.3279 42.539 19.3193 41.7706 18.5529L41.7681 18.5504L41.7657 18.5479C41.3403 18.1089 40.8295 17.7614 40.2645 17.5265C39.6996 17.2916 39.0925 17.1744 38.4805 17.1821L38.477 17.1821ZM35.2268 17.9111C36.1442 17.1661 37.2923 16.7618 38.4753 16.767C39.144 16.7587 39.8074 16.8867 40.4246 17.1434C41.0419 17.4 41.6001 17.7798 42.0649 18.2594C42.9014 19.0937 43.4218 20.1918 43.5371 21.3661C43.6524 22.5405 43.3556 23.7184 42.6973 24.6988C42.039 25.6792 41.0601 26.4014 39.9274 26.7421C38.7948 27.0828 37.5788 27.0208 36.4869 26.5668C35.3949 26.1129 34.4948 25.295 33.94 24.2528C33.3853 23.2106 33.2103 22.0087 33.445 20.8521C33.6796 19.6956 34.3094 18.6561 35.2268 17.9111Z" fill="#2E9ECE"/>
<path d="M86.593 28.615V26.3067C85.5461 27.4873 84.1173 28.2644 82.5553 28.503C80.9933 28.7416 79.3969 28.4265 78.0437 27.6125C76.6906 26.7985 75.6663 25.5372 75.149 24.0478C74.6317 22.5585 74.6541 20.9354 75.2124 19.4609C75.7707 17.9863 76.8296 16.7536 78.2048 15.9772C79.5799 15.2008 81.1845 14.9298 82.7393 15.2113C84.2941 15.4927 85.7008 16.3089 86.7147 17.5179C87.7286 18.7269 88.2856 20.2521 88.2887 21.8283V28.6068L86.593 28.615ZM81.508 16.7664C80.325 16.7611 79.1769 17.1655 78.2595 17.9105C77.3421 18.6555 76.7123 19.6949 76.4777 20.8515C76.243 22.008 76.418 23.21 76.9727 24.2522C77.5275 25.2944 78.4276 26.1122 79.5196 26.5662C80.6115 27.0202 81.8275 27.0821 82.9601 26.7414C84.0928 26.4008 85.0718 25.6786 85.7301 24.6982C86.3883 23.7178 86.6852 22.5399 86.5698 21.3655C86.4545 20.1911 85.9341 19.0931 85.0976 18.2588C84.6328 17.7792 84.0746 17.3994 83.4573 17.1427C82.8401 16.8861 82.1767 16.758 81.508 16.7664Z" fill="#2E9ECE"/>
<path fill-rule="evenodd" clip-rule="evenodd" d="M86.177 29.0327V27.294C85.1692 28.1482 83.9386 28.7123 82.6184 28.9139C80.9602 29.1672 79.2654 28.8327 77.8289 27.9686C76.3924 27.1045 75.305 25.7654 74.7558 24.1843C74.2067 22.6033 74.2305 20.8802 74.8232 19.3148C75.4159 17.7495 76.54 16.4409 77.9999 15.6166C79.4597 14.7924 81.1631 14.5047 82.8137 14.8035C84.4642 15.1023 85.9575 15.9688 87.0339 17.2522C88.1103 18.5356 88.7015 20.1548 88.7049 21.8281V21.8289V29.0205L86.177 29.0327ZM86.177 26.7367C86.3215 26.6002 86.4604 26.457 86.5931 26.3073V28.6157L88.2888 28.6074V21.8289C88.2856 20.2527 87.7286 18.7275 86.7147 17.5185C85.7008 16.3096 84.2941 15.4934 82.7393 15.2119C81.1845 14.9304 79.58 15.2014 78.2048 15.9779C76.8296 16.7543 75.7708 17.987 75.2125 19.4615C74.6542 20.936 74.6317 22.5591 75.149 24.0485C75.6663 25.5378 76.6906 26.7992 78.0438 27.6131C79.397 28.4271 80.9934 28.7422 82.5554 28.5037C83.9194 28.2953 85.1817 27.6763 86.177 26.7367ZM81.5098 17.1821L81.5062 17.1821C80.4196 17.1773 79.365 17.5487 78.5223 18.233C77.6796 18.9173 77.1011 19.8721 76.8856 20.9345C76.67 21.9968 76.8307 23.1008 77.3403 24.0582C77.8499 25.0155 78.6767 25.7667 79.6797 26.1837C80.6827 26.6007 81.7997 26.6576 82.8401 26.3447C83.8804 26.0318 84.7797 25.3684 85.3844 24.4679C85.9891 23.5673 86.2617 22.4853 86.1557 21.4066C86.0498 20.3279 85.5718 19.3193 84.8034 18.5529L84.8009 18.5504L84.7984 18.5479C84.3731 18.1089 83.8622 17.7614 83.2973 17.5265C82.7324 17.2916 82.1253 17.1744 81.5133 17.1821L81.5098 17.1821ZM78.2596 17.9111C79.177 17.1661 80.3251 16.7618 81.5081 16.767C82.1768 16.7587 82.8401 16.8867 83.4574 17.1434C84.0747 17.4 84.6329 17.7798 85.0976 18.2594C85.9342 19.0937 86.4545 20.1918 86.5699 21.3661C86.6852 22.5405 86.3884 23.7184 85.7301 24.6988C85.0718 25.6792 84.0928 26.4014 82.9602 26.7421C81.8276 27.0828 80.6116 27.0208 79.5196 26.5668C78.4277 26.1129 77.5275 25.295 76.9728 24.2528C76.418 23.2106 76.2431 22.0087 76.4777 20.8521C76.7124 19.6956 77.3422 18.6561 78.2596 17.9111Z" fill="#2E9ECE"/>
<path d="M3.64562 28.5062H1.52132V20.0037C1.5221 18.6432 1.85032 17.3028 2.47831 16.0954C3.10629 14.8881 4.01566 13.8492 5.12977 13.0662C6.24389 12.2833 7.53011 11.7793 8.88007 11.5966C10.23 11.414 11.6042 11.5581 12.8867 12.0168C13.7737 12.3403 14.6042 12.8012 15.3477 13.3825C16.0867 12.8001 16.9151 12.3409 17.801 12.0228C18.7212 11.6884 19.6935 11.5199 20.6726 11.5252C22.9216 11.5378 25.0749 12.4357 26.6653 14.0239C28.2556 15.6122 29.1546 17.7627 29.1672 20.0088V28.5113H27.0455V20.0028C27.0378 18.3174 26.364 16.7032 25.1707 15.5114C23.9774 14.3197 22.3611 13.6467 20.6735 13.639C19.2864 13.6285 17.9347 14.0761 16.8286 14.9122C17.9446 16.3739 18.5423 18.1647 18.5277 20.0028V28.5053H16.4069V20.0028C16.4157 18.7554 16.0481 17.5342 15.352 16.4984C14.6423 17.5286 14.2683 18.7524 14.2808 20.0028V28.5053H12.1591V20.0028C12.1446 18.1647 12.7423 16.374 13.8582 14.9122C12.7574 14.0823 11.4149 13.6352 10.0357 13.639C8.34349 13.6374 6.71987 14.3068 5.52154 15.5C4.3232 16.6933 3.64817 18.3128 3.64476 20.0028L3.64562 28.5062Z" fill="#2E9ECE"/>
<path fill-rule="evenodd" clip-rule="evenodd" d="M4.16696 29.0276H1V20.0045C1.00083 18.5605 1.34918 17.1376 2.01568 15.8562C2.68218 14.5749 3.64732 13.4722 4.82977 12.6413C6.01221 11.8103 7.37732 11.2754 8.81007 11.0815C10.2428 10.8877 11.7012 11.0406 13.0624 11.5275L13.0655 11.5286C13.8776 11.8248 14.645 12.2298 15.3466 12.7321C16.0455 12.2291 16.8118 11.8256 17.6236 11.534C18.6015 11.1788 19.6349 10.9998 20.6754 11.0054C23.0617 11.0188 25.3465 11.9714 27.0339 13.6566C28.7212 15.3418 29.6751 17.6236 29.6885 20.0067L29.6885 20.0097L29.6885 29.0328H26.5242V20.0052C26.5169 18.4573 25.898 16.9749 24.8021 15.8804C23.7059 14.7857 22.2213 14.1675 20.6711 14.1605L20.6695 14.1605C19.5669 14.1521 18.4887 14.4593 17.5604 15.0406C18.5417 16.5056 19.0627 18.235 19.049 20.0058V29.0268H15.8855V20C15.8915 19.148 15.7059 18.3094 15.3469 17.5445C14.9816 18.3068 14.7935 19.1458 14.8021 19.9984L14.8022 20.0037L14.8021 29.0268H11.6378V20.0057C11.6243 18.2352 12.1451 16.506 13.1261 15.0412C12.2031 14.4645 11.1327 14.1574 10.0371 14.1605L10.0352 14.1605C8.48114 14.159 6.99009 14.7737 5.88959 15.8696C4.78922 16.9653 4.16932 18.4524 4.16605 20.0042L4.16696 29.0276ZM13.4291 14.6164C13.5757 14.7091 13.7189 14.808 13.8582 14.913C13.8421 14.9341 13.8261 14.9552 13.8102 14.9764C12.7252 16.4264 12.1448 18.1921 12.1591 20.0037V28.5062H14.2808V20.0037C14.2702 18.9462 14.5361 17.9078 15.0476 16.9894C15.1409 16.8218 15.2425 16.6582 15.352 16.4992C15.4596 16.6594 15.5594 16.824 15.6511 16.9924C16.1527 17.9133 16.4143 18.9491 16.4068 20.0037V28.5062H18.5277V20.0037C18.5422 18.1851 17.9573 16.4129 16.8641 14.9598C16.8523 14.9442 16.8405 14.9286 16.8286 14.913C16.9678 14.8078 17.1108 14.7087 17.2574 14.616C18.2754 13.9715 19.4609 13.6306 20.6735 13.6399C22.3611 13.6475 23.9774 14.3205 25.1707 15.5123C26.364 16.704 27.0378 18.3182 27.0455 20.0037V28.5122H29.1672V20.0097C29.1546 17.7636 28.2556 15.613 26.6652 14.0248C25.0749 12.4365 22.9216 11.5386 20.6726 11.526C19.6934 11.5207 18.7211 11.6892 17.801 12.0236C16.9151 12.3417 16.0866 12.8009 15.3477 13.3834C14.6042 12.802 13.7737 12.3411 12.8867 12.0176C11.6041 11.5589 10.23 11.4148 8.88005 11.5975C7.5301 11.7801 6.24387 12.2841 5.12976 13.067C4.01564 13.85 3.10628 14.8889 2.47829 16.0962C1.8503 17.3036 1.52209 18.644 1.5213 20.0045V28.507H3.6456L3.64474 20.0037C3.64816 18.3136 4.32319 16.6941 5.52152 15.5009C6.71985 14.3076 8.34347 13.6383 10.0357 13.6399C11.2403 13.6365 12.417 13.9772 13.4291 14.6164Z" fill="#2E9ECE"/>
<path d="M108.685 23.5401C108.919 24.2052 109.289 24.8143 109.771 25.3288C110.253 25.8433 110.837 26.2519 111.486 26.5288C112.134 26.8056 112.833 26.9446 113.538 26.937C114.243 26.9293 114.939 26.7752 115.581 26.4843C116.219 26.1895 116.791 25.7689 117.262 25.2477H119.338C118.748 26.2592 117.909 27.1028 116.901 27.6983C115.615 28.4472 114.118 28.7508 112.642 28.5619C111.166 28.373 109.794 27.7023 108.738 26.6537C107.683 25.6052 107.003 24.2375 106.804 22.7629C106.605 21.2884 106.898 19.7894 107.639 18.4987C108.379 17.2079 109.524 16.1976 110.898 15.6246C112.271 15.0515 113.795 14.9478 115.233 15.3294C116.671 15.711 117.943 16.5566 118.851 17.7351C119.76 18.9136 120.254 20.3589 120.256 21.8468C120.258 22.4175 120.189 22.9862 120.051 23.5401H108.685ZM108.393 21.8468H118.565C118.565 20.4979 118.029 19.2043 117.075 18.2505C116.121 17.2967 114.828 16.7609 113.479 16.7609C112.13 16.7609 110.836 17.2967 109.882 18.2505C108.929 19.2043 108.393 20.4979 108.393 21.8468Z" fill="#2E9ECE"/>
<path fill-rule="evenodd" clip-rule="evenodd" d="M119.075 25.6639C118.509 26.4916 117.768 27.187 116.901 27.6989C115.615 28.4478 114.118 28.7514 112.642 28.5625C111.166 28.3737 109.794 27.7029 108.739 26.6544C107.683 25.6058 107.003 24.2381 106.804 22.7636C106.605 21.289 106.899 19.79 107.639 18.4993C108.379 17.2086 109.525 16.1983 110.898 15.6252C112.271 15.0522 113.795 14.9484 115.233 15.33C116.671 15.7116 117.943 16.5573 118.851 17.7357C119.76 18.9142 120.254 20.3596 120.257 21.8475C120.258 22.4182 120.189 22.9868 120.051 23.5407H108.685C108.735 23.6819 108.791 23.8205 108.852 23.9563C109.081 24.4601 109.392 24.9241 109.771 25.3294C110.254 25.8439 110.837 26.2526 111.486 26.5294C112.134 26.8063 112.833 26.9453 113.538 26.9376C114.243 26.93 114.939 26.7758 115.581 26.4849C116.219 26.1901 116.791 25.7695 117.262 25.2484H119.338C119.255 25.3902 119.167 25.5288 119.075 25.6639ZM109.313 23.9563H120.376L120.454 23.6409C120.6 23.054 120.673 22.4514 120.672 21.8467C120.669 20.2672 120.145 18.733 119.18 17.4821C118.216 16.2311 116.866 15.3335 115.339 14.9284C113.813 14.5233 112.195 14.6335 110.738 15.2418C109.28 15.8501 108.064 16.9225 107.278 18.2926C106.493 19.6627 106.181 21.2539 106.392 22.8191C106.603 24.3844 107.325 25.8362 108.446 26.9492C109.566 28.0622 111.023 28.7742 112.59 28.9747C114.156 29.1752 115.745 28.8529 117.11 28.0579L117.112 28.0567C118.181 27.4251 119.071 26.5304 119.697 25.4577L120.061 24.8328H117.078L116.954 24.9697C116.521 25.4489 115.995 25.8358 115.409 26.107C114.819 26.3737 114.181 26.5151 113.534 26.5221C112.886 26.5292 112.245 26.4015 111.649 26.1473C111.054 25.893 110.517 25.5178 110.075 25.0453C109.769 24.7197 109.513 24.3528 109.313 23.9563ZM118.548 21.4319C118.45 20.2352 117.93 19.1065 117.075 18.2512C116.121 17.2974 114.828 16.7615 113.479 16.7615C112.13 16.7615 110.836 17.2974 109.882 18.2512C109.027 19.1065 108.508 20.2352 108.41 21.4319C108.399 21.5696 108.393 21.7083 108.393 21.8475H118.565C118.565 21.7083 118.559 21.5696 118.548 21.4319ZM108.827 21.4319H118.131C118.034 20.3456 117.559 19.3224 116.781 18.545C115.905 17.6691 114.717 17.1771 113.479 17.1771C112.24 17.1771 111.052 17.6691 110.176 18.545C109.399 19.3224 108.924 20.3456 108.827 21.4319Z" fill="#2E9ECE"/>
<path d="M123.336 25.9778C123.114 25.9766 122.898 26.0518 122.726 26.1904C122.553 26.3291 122.435 26.5226 122.391 26.738C122.346 26.9534 122.379 27.1773 122.483 27.3715C122.588 27.5656 122.757 27.718 122.962 27.8025C123.167 27.887 123.395 27.8985 123.608 27.835C123.821 27.7714 124.005 27.6368 124.128 27.4541C124.252 27.2715 124.307 27.052 124.285 26.8333C124.264 26.6146 124.166 26.4101 124.008 26.2549C123.921 26.166 123.817 26.0955 123.701 26.0479C123.585 26.0003 123.461 25.9764 123.336 25.9778Z" fill="#464749"/>
<path d="M127.946 22.7524L127.947 22.7524C128.225 22.7491 128.501 22.8034 128.757 22.9117C129.013 23.02 129.243 23.1798 129.433 23.3811L129.433 23.3814L129.505 23.4568L129.572 23.5274L129.644 23.462L130.342 22.8307L130.421 22.7598L130.346 22.6855L130.27 22.6109C129.904 22.2312 129.449 21.9473 128.945 21.7845C128.441 21.6216 127.904 21.5851 127.381 21.6783C126.859 21.7715 126.369 21.9915 125.954 22.3186C125.539 22.6457 125.212 23.0697 125.004 23.5527C124.795 24.0356 124.711 24.5623 124.759 25.0854C124.807 25.6086 124.985 26.1116 125.278 26.5495C125.571 26.9874 125.97 27.3463 126.437 27.5942C126.905 27.8421 127.427 27.9712 127.958 27.97L127.958 27.97C128.652 27.965 129.325 27.742 129.882 27.3331C130.439 26.9242 130.85 26.3506 131.055 25.6951L131.056 25.6951L131.056 25.6934L131.096 25.5582L131.134 25.43H131H130.014H129.946L129.921 25.4932L129.895 25.5593C129.894 25.5593 129.894 25.5594 129.894 25.5595C129.739 25.9457 129.471 26.2775 129.124 26.5121C128.777 26.7466 128.366 26.8732 127.946 26.8754C127.392 26.8753 126.862 26.6579 126.471 26.2712C126.08 25.8845 125.861 25.3603 125.861 24.8139C125.861 24.2675 126.08 23.7433 126.471 23.3566C126.862 22.9698 127.393 22.7524 127.946 22.7524Z" fill="#464749" stroke="#464749" stroke-width="0.2"/>
<path d="M134.789 21.6712C134.161 21.6774 133.549 21.8673 133.03 22.2171C132.511 22.5668 132.108 23.0609 131.872 23.6371C131.636 24.2133 131.578 24.8457 131.705 25.4547C131.831 26.0636 132.138 26.6217 132.584 27.0586C133.031 27.4955 133.599 27.7917 134.215 27.91C134.831 28.0284 135.47 27.9636 136.049 27.7239C136.628 27.4841 137.123 27.08 137.471 26.5624C137.819 26.0447 138.004 25.4367 138.003 24.8149C138.002 24.3991 137.919 23.9875 137.756 23.6039C137.594 23.2203 137.357 22.8724 137.058 22.5801C136.759 22.2879 136.405 22.0572 136.015 21.9012C135.626 21.7452 135.209 21.6671 134.789 21.6712ZM136.853 24.8143C136.849 25.2176 136.726 25.6111 136.497 25.9451C136.268 26.2792 135.944 26.539 135.566 26.6916C135.188 26.8442 134.773 26.8828 134.372 26.8024C133.972 26.722 133.605 26.5263 133.317 26.2401C133.029 25.9539 132.834 25.59 132.755 25.1943C132.676 24.7986 132.717 24.3886 132.873 24.0159C133.029 23.6432 133.293 23.3244 133.633 23.0997C133.972 22.875 134.371 22.7545 134.779 22.7536C135.053 22.7529 135.324 22.8059 135.576 22.9095C135.829 23.013 136.058 23.1651 136.251 23.3568C136.444 23.5485 136.596 23.776 136.7 24.0261C136.803 24.2763 136.855 24.5442 136.853 24.8143Z" fill="#464749" stroke="#464749" stroke-width="0.2"/>
<path d="M145.266 21.7968L145.264 21.7969C144.852 21.8032 144.445 21.9016 144.076 22.0848C143.745 22.2492 143.451 22.478 143.212 22.7572C142.977 22.4743 142.684 22.2428 142.352 22.0778C141.982 21.8939 141.574 21.7977 141.161 21.7969H141.16C140.467 21.7969 139.802 22.0692 139.311 22.5544C138.82 23.0397 138.544 23.698 138.544 24.3848V24.3848V27.8688V27.9688H138.644H139.571H139.671V27.8688V24.3244C139.671 24.1312 139.709 23.9399 139.784 23.7613C139.859 23.5828 139.968 23.4205 140.107 23.2837C140.245 23.1469 140.409 23.0383 140.59 22.9643C140.771 22.8902 140.965 22.852 141.16 22.852C141.356 22.852 141.55 22.8902 141.731 22.9643C141.912 23.0383 142.076 23.1469 142.214 23.2837C142.352 23.4204 142.462 23.5828 142.537 23.7613C142.612 23.9399 142.65 24.1312 142.65 24.3244V27.8654V27.9654H142.75H143.676H143.776V27.8654V24.3244H143.776L143.776 24.3225C143.773 24.127 143.808 23.9327 143.881 23.751C143.954 23.5693 144.063 23.4037 144.202 23.264C144.341 23.1243 144.506 23.0132 144.689 22.9374C144.871 22.8616 145.068 22.8225 145.266 22.8225C145.464 22.8225 145.66 22.8616 145.843 22.9374C146.025 23.0132 146.191 23.1243 146.329 23.264C146.468 23.4037 146.577 23.5693 146.65 23.751C146.723 23.9327 146.759 24.127 146.755 24.3225L146.755 24.3225V24.3244V27.8654V27.9654H146.855H147.781H147.881V27.8654V24.3848V24.3848C147.881 23.6982 147.605 23.04 147.115 22.5548C146.624 22.0696 145.959 21.7972 145.266 21.7968Z" fill="#464749" stroke="#464749" stroke-width="0.2"/>
</svg>
